<?xml version="1.0" encoding="UTF-8" standalone="no"?><!-- Generator: Gravit.io --><svg xmlns="http://www.w3.org/2000/svg" xmlns:xlink="http://www.w3.org/1999/xlink" style="isolation:isolate" viewBox="0 0 145 107" width="145pt" height="107pt"><defs><clipPath id="_clipPath_LHLgMS5ZGcXNsojzbWYA4qCh6kuuP8B4"><rect width="145" height="107"/></clipPath></defs><g clip-path="url(#_clipPath_LHLgMS5ZGcXNsojzbWYA4qCh6kuuP8B4)"><g><path d=" M 44.395 10.482 L 48.708 10.516 Q 54.845 5.326 56.022 5.188 C 58.219 4.93 54.346 17.192 55.222 19.89 C 55.606 21.07 86.935 32.504 89.564 36.947 Q 93.503 43.604 97.126 51.141 Q 100.621 56.197 103.409 58.468 C 107.456 61.764 110.077 61.768 110.204 62.302 C 110.395 63.106 106.734 63.243 99.42 62.841 C 96.323 62.487 93.591 61.634 92.527 60.579 C 90.93 58.995 88.371 50.402 87.319 49.763 C 86.92 49.521 81.731 46.628 80.868 47.661 Q 80.07 48.616 80.815 52.098 Q 83.628 54.678 83.794 55.754 Q 84.1 57.737 74.795 64.701 Q 72.405 64.951 71.958 63.695 Q 71.664 62.868 72.378 61.346 Q 77.012 58.518 77.322 57.262 Q 77.672 55.845 71.87 49.32 Q 67.548 42.559 67.016 42.459 C 63.974 41.884 62.007 41.755 58.505 41.956 C 58.239 42.811 64.373 56.235 64.644 57.679 C 64.844 58.744 65.434 63.788 64.799 64.625 C 64.134 65.503 62.498 65.322 60.765 65.078 C 60.153 64.991 61.174 62.548 58.992 56.683 C 57.795 53.467 55.321 46.643 54.626 45.525 C 53.252 43.313 51.922 41.202 50.592 39.644 C 49.013 37.794 46.824 37.231 44.785 35.02 C 42.689 32.746 41.921 31.407 41.068 29.22 Q 40.66 25.308 37.926 16.222 Q 36.94 5.622 38.067 5.221 Q 39.71 4.635 44.395 10.482 Z " fill="rgb(255,255,255)" vector-effect="non-scaling-stroke" stroke-width="0.5" stroke="rgb(0,0,0)" stroke-linejoin="miter" stroke-linecap="square" stroke-miterlimit="3"/><path d=" M 84.229 48.057 C 83.344 47.737 82.599 47.662 81.25 47.608 C 80.564 47.581 86.05 59.769 85.543 60.408 C 85.06 61.016 83.458 63.202 83.672 63.931 C 83.842 64.508 84.68 64.564 85.228 64.357 C 85.871 64.114 88.97 61.786 89.148 61.281 C 89.363 60.673 86.705 49.475 86.354 49.277 C 85.626 48.864 84.862 48.386 84.229 48.057 Z " fill="rgb(255,255,255)" vector-effect="non-scaling-stroke" stroke-width="0.5" stroke="rgb(0,0,0)" stroke-linejoin="miter" stroke-linecap="square" stroke-miterlimit="3"/><path d=" M 45.946 36.173 C 44.074 34.529 42.951 32.709 42.638 32.393 C 42.082 31.831 44.711 39.633 44.595 44.257 C 44.501 47.962 43.653 53.47 43.279 57.07 C 43.065 59.141 42.736 60.354 41.952 60.989 C 41.188 61.608 39.682 62.311 38.898 62.755 C 38.727 63.532 39.218 63.882 40.207 64.239 C 40.975 64.517 44.605 64.656 45.816 63.533 C 46.843 62.58 47.619 56.052 47.956 53.89 C 48.459 50.653 49.076 48.597 49.636 44.998 C 49.76 44.202 50.294 42.863 50.481 39.581 Q 47.513 37.252 45.946 36.173 Z " fill="rgb(255,255,255)" vector-effect="non-scaling-stroke" stroke-width="0.5" stroke="rgb(0,0,0)" stroke-linejoin="miter" stroke-linecap="square" stroke-miterlimit="3"/><path d=" M 50.144 12.377 C 50.376 13.087 52.134 15.512 52.927 15.428 C 53.67 15.349 55.386 8.985 54.783 8.038 C 54.485 7.57 49.937 11.743 50.144 12.377 Z " fill="rgb(255,255,255)" vector-effect="non-scaling-stroke" stroke-width="0.5" stroke="rgb(0,0,0)" stroke-linejoin="miter" stroke-linecap="square" stroke-miterlimit="3"/><path d=" M 43.302 11.756 C 43.824 12.432 40.031 16.392 39.938 15.284 C 39.52 10.34 38.993 7.568 39.475 7.798 C 40.274 8.179 42.977 11.335 43.302 11.756 Z " fill="rgb(255,255,255)" vector-effect="non-scaling-stroke" stroke-width="0.5" stroke="rgb(0,0,0)" stroke-linejoin="miter" stroke-linecap="square" stroke-miterlimit="3"/><ellipse vector-effect="non-scaling-stroke" cx="43.32390906848958" cy="21.394570987451722" rx="1.1730884911699846" ry="1.3301685608530036" fill="rgb(0,0,0)"/><ellipse vector-effect="non-scaling-stroke" cx="49.67061859764004" cy="21.01939523951879" rx="1.1730884911699846" ry="1.3301685608530036" fill="rgb(0,0,0)"/><ellipse vector-effect="non-scaling-stroke" cx="46.27166989245518" cy="29.017460047724427" rx="1.8949891011207427" ry="1.0402600283593948" fill="rgb(0,0,0)"/><g clip-path="url(#_clipPath_KnyjIpv83ryV7bY1qcwNrmxbHP0OR1vk)"><text transform="matrix(1,0,0,1,3.075,92.865)" style="font-family:'Source Code Pro';font-weight:400;font-size:39px;font-style:normal;fill:#FFFFFF;stroke:#000000;stroke-width:0.5;">antapp</text></g><defs><clipPath id="_clipPath_KnyjIpv83ryV7bY1qcwNrmxbHP0OR1vk"><rect x="0" y="0" width="165.865" height="52.152" transform="matrix(1,0,0,1,-10.157,52.989)"/></clipPath></defs></g></g></svg>