<?xml version="1.0" encoding="UTF-8" standalone="no"?><!-- Generator: Gravit.io --><svg xmlns="http://www.w3.org/2000/svg" xmlns:xlink="http://www.w3.org/1999/xlink" style="isolation:isolate" viewBox="0 0 83.593 75.664" width="83.593pt" height="75.664pt"><defs><clipPath id="_clipPath_p7YFQKh3jz2QN8kNzTDukCMAC5jPG6X4"><rect width="83.593" height="75.664"/></clipPath></defs><g clip-path="url(#_clipPath_p7YFQKh3jz2QN8kNzTDukCMAC5jPG6X4)"><g style="isolation:isolate"><g><path d=" M 64.698 20.954 C 65.248 22.95 65.539 25.053 65.539 27.222 C 65.539 35.652 61.119 43.085 54.498 47.31 M 29.085 47.341 C 28.283 46.835 27.513 46.283 26.78 45.688 C 21.401 41.328 17.955 34.68 17.955 27.222 C 17.955 25.053 18.246 22.95 18.796 20.954 M 54.492 47.31 C 70.551 51.086 82.222 61.882 82.593 74.664 L 1 74.664 C 1.371 61.89 13.055 51.125 29.1 47.344" fill-rule="evenodd" fill="none" vector-effect="non-scaling-stroke" stroke-width="2" stroke="rgb(0,0,0)" stroke-linejoin="miter" stroke-linecap="round" stroke-miterlimit="3"/><g><mask id="_mask_b1Cu3FIbvsnfHZ8NlcpqgK9vX4GRDzPc"><path d=" M 32.652 28.385 C 32.652 29.406 33.494 30.234 34.532 30.234 C 35.57 30.234 36.412 29.406 36.412 28.385 C 36.412 27.365 35.57 26.536 34.532 26.536 C 33.494 26.536 32.652 27.365 32.652 28.385 Z " fill="white" stroke="none"/></mask><path d=" M 32.652 28.385 C 32.652 29.406 33.494 30.234 34.532 30.234 C 35.57 30.234 36.412 29.406 36.412 28.385 C 36.412 27.365 35.57 26.536 34.532 26.536 C 33.494 26.536 32.652 27.365 32.652 28.385 Z " fill="rgb(0,0,0)"/><path d=" M 32.652 28.385 C 32.652 29.406 33.494 30.234 34.532 30.234 C 35.57 30.234 36.412 29.406 36.412 28.385 C 36.412 27.365 35.57 26.536 34.532 26.536 C 33.494 26.536 32.652 27.365 32.652 28.385 Z " fill="rgb(0,0,0)" mask="url(#_mask_b1Cu3FIbvsnfHZ8NlcpqgK9vX4GRDzPc)" vector-effect="non-scaling-stroke" stroke-width="4" stroke="rgb(0,0,0)" stroke-linejoin="miter" stroke-linecap="butt" stroke-miterlimit="3"/><mask id="_mask_AlSqfLBt0u8K59cBq4IZdkqJIoGaWTTJ"><path d=" M 46.65 28.385 C 46.65 29.406 47.492 30.234 48.53 30.234 C 49.568 30.234 50.41 29.406 50.41 28.385 C 50.41 27.365 49.568 26.536 48.53 26.536 C 47.492 26.536 46.65 27.365 46.65 28.385 Z " fill="white" stroke="none"/></mask><path d=" M 46.65 28.385 C 46.65 29.406 47.492 30.234 48.53 30.234 C 49.568 30.234 50.41 29.406 50.41 28.385 C 50.41 27.365 49.568 26.536 48.53 26.536 C 47.492 26.536 46.65 27.365 46.65 28.385 Z " fill="rgb(0,0,0)"/><path d=" M 46.65 28.385 C 46.65 29.406 47.492 30.234 48.53 30.234 C 49.568 30.234 50.41 29.406 50.41 28.385 C 50.41 27.365 49.568 26.536 48.53 26.536 C 47.492 26.536 46.65 27.365 46.65 28.385 Z " fill="rgb(0,0,0)" mask="url(#_mask_AlSqfLBt0u8K59cBq4IZdkqJIoGaWTTJ)" vector-effect="non-scaling-stroke" stroke-width="4" stroke="rgb(0,0,0)" stroke-linejoin="miter" stroke-linecap="butt" stroke-miterlimit="3"/><path d=" M 37.556 39.029 Q 40.439 40.657 42.044 40.607 Q 43.518 40.561 46.156 39.029" fill="none" vector-effect="non-scaling-stroke" stroke-width="2" stroke="rgb(0,0,0)" stroke-linejoin="miter" stroke-linecap="round" stroke-miterlimit="3"/></g><path d=" M 16.563 21.097 L 66.447 20.925 M 38.295 1.39 Q 31.727 5.731 29.205 9.127 Q 27.504 11.418 25.429 16.281 M 41.526 1.377 L 41.526 9.127 L 41.526 14.493 M 46.277 1.421 Q 52.843 6.062 55.437 9.525 Q 57.166 11.833 59.411 16.679 M 16.402 20.933 Q 21.329 15.367 42.152 15.183 Q 62.976 14.999 66.777 20.933 M 16.407 20.662 C 19.188 9.439 29.633 1 41.711 1 C 53.789 1 63.925 9.365 66.707 20.588" fill-rule="evenodd" fill="none" vector-effect="non-scaling-stroke" stroke-width="2" stroke="rgb(0,0,0)" stroke-linejoin="miter" stroke-linecap="round" stroke-miterlimit="3"/></g><g><path d=" M 64.698 20.954 C 65.248 22.95 65.539 25.053 65.539 27.222 C 65.539 35.652 61.119 43.085 54.498 47.31 M 29.085 47.341 C 28.283 46.835 27.513 46.283 26.78 45.688 C 21.401 41.328 17.955 34.68 17.955 27.222 C 17.955 25.053 18.246 22.95 18.796 20.954 M 54.492 47.31 C 70.551 51.086 82.222 61.882 82.593 74.664 L 1 74.664 C 1.371 61.89 13.055 51.125 29.1 47.344" fill-rule="evenodd" fill="none" vector-effect="non-scaling-stroke" stroke-width="2" stroke="rgb(255,255,255)" stroke-linejoin="miter" stroke-linecap="round" stroke-miterlimit="3"/><g><mask id="_mask_FLwdiP4SGasL3QOmaIUgjSKB31BsGpjW"><path d=" M 32.652 28.385 C 32.652 29.406 33.494 30.234 34.532 30.234 C 35.57 30.234 36.412 29.406 36.412 28.385 C 36.412 27.365 35.57 26.536 34.532 26.536 C 33.494 26.536 32.652 27.365 32.652 28.385 Z " fill="white" stroke="none"/></mask><path d=" M 32.652 28.385 C 32.652 29.406 33.494 30.234 34.532 30.234 C 35.57 30.234 36.412 29.406 36.412 28.385 C 36.412 27.365 35.57 26.536 34.532 26.536 C 33.494 26.536 32.652 27.365 32.652 28.385 Z " fill="rgb(255,255,255)"/><path d=" M 32.652 28.385 C 32.652 29.406 33.494 30.234 34.532 30.234 C 35.57 30.234 36.412 29.406 36.412 28.385 C 36.412 27.365 35.57 26.536 34.532 26.536 C 33.494 26.536 32.652 27.365 32.652 28.385 Z " fill="rgb(255,255,255)" mask="url(#_mask_FLwdiP4SGasL3QOmaIUgjSKB31BsGpjW)" vector-effect="non-scaling-stroke" stroke-width="4" stroke="rgb(255,255,255)" stroke-linejoin="miter" stroke-linecap="butt" stroke-miterlimit="3"/><mask id="_mask_imxkWTw5J4cqBMYdv6MeTbVvogWa46Zf"><path d=" M 46.65 28.385 C 46.65 29.406 47.492 30.234 48.53 30.234 C 49.568 30.234 50.41 29.406 50.41 28.385 C 50.41 27.365 49.568 26.536 48.53 26.536 C 47.492 26.536 46.65 27.365 46.65 28.385 Z " fill="white" stroke="none"/></mask><path d=" M 46.65 28.385 C 46.65 29.406 47.492 30.234 48.53 30.234 C 49.568 30.234 50.41 29.406 50.41 28.385 C 50.41 27.365 49.568 26.536 48.53 26.536 C 47.492 26.536 46.65 27.365 46.65 28.385 Z " fill="rgb(255,255,255)"/><path d=" M 46.65 28.385 C 46.65 29.406 47.492 30.234 48.53 30.234 C 49.568 30.234 50.41 29.406 50.41 28.385 C 50.41 27.365 49.568 26.536 48.53 26.536 C 47.492 26.536 46.65 27.365 46.65 28.385 Z " fill="rgb(255,255,255)" mask="url(#_mask_imxkWTw5J4cqBMYdv6MeTbVvogWa46Zf)" vector-effect="non-scaling-stroke" stroke-width="4" stroke="rgb(255,255,255)" stroke-linejoin="miter" stroke-linecap="butt" stroke-miterlimit="3"/><path d=" M 37.556 39.029 Q 40.439 40.657 42.044 40.607 Q 43.518 40.561 46.156 39.029" fill="none" vector-effect="non-scaling-stroke" stroke-width="2" stroke="rgb(255,255,255)" stroke-linejoin="miter" stroke-linecap="round" stroke-miterlimit="3"/></g><path d=" M 16.563 21.097 L 66.447 20.925 M 38.295 1.39 Q 31.727 5.731 29.205 9.127 Q 27.504 11.418 25.429 16.281 M 41.526 1.377 L 41.526 9.127 L 41.526 14.493 M 46.277 1.421 Q 52.843 6.062 55.437 9.525 Q 57.166 11.833 59.411 16.679 M 16.402 20.933 Q 21.329 15.367 42.152 15.183 Q 62.976 14.999 66.777 20.933 M 16.407 20.662 C 19.188 9.439 29.633 1 41.711 1 C 53.789 1 63.925 9.365 66.707 20.588" fill-rule="evenodd" fill="none" vector-effect="non-scaling-stroke" stroke-width="2" stroke="rgb(255,255,255)" stroke-linejoin="miter" stroke-linecap="round" stroke-miterlimit="3"/></g></g></g></svg>