<?xml version="1.0" encoding="UTF-8" standalone="no"?><!-- Generator: Gravit.io --><svg xmlns="http://www.w3.org/2000/svg" xmlns:xlink="http://www.w3.org/1999/xlink" style="isolation:isolate" viewBox="0 0 100.698 78.842" width="100.698pt" height="78.842pt"><defs><clipPath id="_clipPath_edl6WoABuXTKQAbt9oA8BwDENrxis4Mr"><rect width="100.698" height="78.842"/></clipPath></defs><g clip-path="url(#_clipPath_edl6WoABuXTKQAbt9oA8BwDENrxis4Mr)"><g style="isolation:isolate"><g><path d=" M 61.093 30.338 C 58.919 22.697 54.978 17.621 50.485 17.621 C 45.975 17.621 42.021 22.735 39.832 30.392" fill="none" vector-effect="non-scaling-stroke" stroke-width="2" stroke="rgb(0,0,0)" stroke-linejoin="miter" stroke-linecap="round" stroke-miterlimit="3"/><path d=" M 39.757 30.349 C 32.459 26.025 27 24.111 21.056 19.271 C 15.091 14.414 9.12 1.842 6.375 3.138 C 3.63 4.433 1.963 7.631 3.726 17.741 C 4.298 21.018 3.296 23.796 5.2 26.148 C 6.708 28.011 6.656 33.988 8.896 35.892 C 10.898 37.594 12.649 37.121 14.119 38.631 C 15.457 40.005 15.701 43.028 17.027 44.412" fill="none" vector-effect="non-scaling-stroke" stroke-width="2" stroke="rgb(0,0,0)" stroke-linejoin="miter" stroke-linecap="round" stroke-miterlimit="3"/><path d=" M 61.24 30.245 C 68.541 25.923 73.688 24.061 79.634 19.222 C 85.602 14.366 91.575 1.798 94.321 3.093 C 97.067 4.388 98.735 7.585 96.971 17.692 C 96.399 20.968 97.402 23.746 95.497 26.097 C 93.989 27.959 94.04 33.936 91.799 35.839 C 89.797 37.541 88.044 37.067 86.574 38.577 C 85.475 39.705 84.611 42.655 83.869 43.936" fill="none" vector-effect="non-scaling-stroke" stroke-width="2" stroke="rgb(0,0,0)" stroke-linejoin="miter" stroke-linecap="round" stroke-miterlimit="3"/><mask id="_mask_ZKkBxXj8W8w5VGcZvW329WSoJvKpRoxd"><path d=" M 17.076 42.164 C 18.242 42.164 82.8 42.164 83.848 42.164 C 84.896 42.164 84.778 78.842 83.848 78.842 C 82.918 78.842 18.006 78.842 17.076 78.842 C 16.146 78.842 15.911 42.164 17.076 42.164 Z " fill="white" stroke="none"/></mask><path d=" M 17.076 42.164 C 18.242 42.164 82.8 42.164 83.848 42.164 C 84.896 42.164 84.778 78.842 83.848 78.842 C 82.918 78.842 18.006 78.842 17.076 78.842 C 16.146 78.842 15.911 42.164 17.076 42.164 Z " fill="none"/><path d=" M 17.076 42.164 C 18.242 42.164 82.8 42.164 83.848 42.164 C 84.896 42.164 84.778 78.842 83.848 78.842 C 82.918 78.842 18.006 78.842 17.076 78.842 C 16.146 78.842 15.911 42.164 17.076 42.164 Z " fill="none" mask="url(#_mask_ZKkBxXj8W8w5VGcZvW329WSoJvKpRoxd)" vector-effect="non-scaling-stroke" stroke-width="4" stroke="rgb(0,0,0)" stroke-linejoin="miter" stroke-linecap="square" stroke-miterlimit="3"/><mask id="_mask_Dww9TX84hvYWqsjUIYsYYQ6CfYQdNAxC"><path d=" M 18.764 43.809 Q 18.24 43.371 17.654 42.869 L 18.781 42.869" fill="white" stroke="none"/></mask><path d=" M 18.764 43.809 Q 18.24 43.371 17.654 42.869 L 18.781 42.869" fill="none"/><path d=" M 18.764 43.809 Q 18.24 43.371 17.654 42.869 L 18.781 42.869" fill="none" mask="url(#_mask_Dww9TX84hvYWqsjUIYsYYQ6CfYQdNAxC)" vector-effect="non-scaling-stroke" stroke-width="4" stroke="rgb(0,0,0)" stroke-linejoin="miter" stroke-linecap="square" stroke-miterlimit="3"/><mask id="_mask_Hv3eBUE0A78HfDRtqiOMSZShHdmNjl1j"><path d=" M 82.958 43.896 C 64.988 59.59 53.788 67.136 50.462 67.136 C 47.566 67.136 35.883 59.464 17.629 43.896" fill="white" stroke="none"/></mask><path d=" M 82.958 43.896 C 64.988 59.59 53.788 67.136 50.462 67.136 C 47.566 67.136 35.883 59.464 17.629 43.896" fill="none"/><path d=" M 82.958 43.896 C 64.988 59.59 53.788 67.136 50.462 67.136 C 47.566 67.136 35.883 59.464 17.629 43.896" fill="none" mask="url(#_mask_Hv3eBUE0A78HfDRtqiOMSZShHdmNjl1j)" vector-effect="non-scaling-stroke" stroke-width="4" stroke="rgb(0,0,0)" stroke-linejoin="miter" stroke-linecap="square" stroke-miterlimit="3"/><mask id="_mask_EBxpDkJprdKMMyMGwWcaF9vgp4WxVrsU"><path d=" M 45.051 27.527 C 45.051 28.223 45.644 28.788 46.376 28.788 C 47.107 28.788 47.701 28.223 47.701 27.527 C 47.701 26.831 47.107 26.265 46.376 26.265 C 45.644 26.265 45.051 26.831 45.051 27.527 Z " fill="white" stroke="none"/></mask><path d=" M 45.051 27.527 C 45.051 28.223 45.644 28.788 46.376 28.788 C 47.107 28.788 47.701 28.223 47.701 27.527 C 47.701 26.831 47.107 26.265 46.376 26.265 C 45.644 26.265 45.051 26.831 45.051 27.527 Z " fill="rgb(0,0,0)"/><path d=" M 45.051 27.527 C 45.051 28.223 45.644 28.788 46.376 28.788 C 47.107 28.788 47.701 28.223 47.701 27.527 C 47.701 26.831 47.107 26.265 46.376 26.265 C 45.644 26.265 45.051 26.831 45.051 27.527 Z " fill="rgb(0,0,0)" mask="url(#_mask_EBxpDkJprdKMMyMGwWcaF9vgp4WxVrsU)" vector-effect="non-scaling-stroke" stroke-width="4" stroke="rgb(0,0,0)" stroke-linejoin="miter" stroke-linecap="butt" stroke-miterlimit="3"/><mask id="_mask_OEg8Jz5Hii3pDlaQHQ07MLuGhCVfDVUO"><path d=" M 53.616 27.527 C 53.616 28.223 54.209 28.788 54.941 28.788 C 55.672 28.788 56.266 28.223 56.266 27.527 C 56.266 26.831 55.672 26.265 54.941 26.265 C 54.209 26.265 53.616 26.831 53.616 27.527 Z " fill="white" stroke="none"/></mask><path d=" M 53.616 27.527 C 53.616 28.223 54.209 28.788 54.941 28.788 C 55.672 28.788 56.266 28.223 56.266 27.527 C 56.266 26.831 55.672 26.265 54.941 26.265 C 54.209 26.265 53.616 26.831 53.616 27.527 Z " fill="rgb(0,0,0)"/><path d=" M 53.616 27.527 C 53.616 28.223 54.209 28.788 54.941 28.788 C 55.672 28.788 56.266 28.223 56.266 27.527 C 56.266 26.831 55.672 26.265 54.941 26.265 C 54.209 26.265 53.616 26.831 53.616 27.527 Z " fill="rgb(0,0,0)" mask="url(#_mask_OEg8Jz5Hii3pDlaQHQ07MLuGhCVfDVUO)" vector-effect="non-scaling-stroke" stroke-width="4" stroke="rgb(0,0,0)" stroke-linejoin="miter" stroke-linecap="butt" stroke-miterlimit="3"/><path d=" M 46.265 32.171 Q 48.559 38.885 50.198 39.155 Q 52.022 39.456 54.66 32.171" fill="none" vector-effect="non-scaling-stroke" stroke-width="2" stroke="rgb(0,0,0)" stroke-linejoin="miter" stroke-linecap="round" stroke-miterlimit="3"/></g></g></g></svg>