<?xml version="1.0" encoding="UTF-8" standalone="no"?><!-- Generator: Gravit.io --><svg xmlns="http://www.w3.org/2000/svg" xmlns:xlink="http://www.w3.org/1999/xlink" style="isolation:isolate" viewBox="0 0 54.494 49.295" width="54.494pt" height="49.295pt"><defs><clipPath id="_clipPath_AIxpzKnR1Uap68ProQGghVRCXOLrvoWK"><rect width="54.494" height="49.295"/></clipPath></defs><g clip-path="url(#_clipPath_AIxpzKnR1Uap68ProQGghVRCXOLrvoWK)"><g style="isolation:isolate"><g><path d=" M 42.262 13.583 C 42.622 14.891 42.813 16.269 42.813 17.692 C 42.813 23.219 39.915 28.092 35.574 30.862 M 18.913 30.882 C 18.387 30.551 17.883 30.189 17.402 29.799 C 13.875 26.94 11.616 22.581 11.616 17.692 C 11.616 16.269 11.807 14.891 12.167 13.583 M 35.571 30.862 C 46.099 33.338 53.751 40.416 53.994 48.795 L 0.5 48.795 C 0.743 40.421 8.404 33.363 18.923 30.884" fill-rule="evenodd" fill="none" vector-effect="non-scaling-stroke" stroke-width="1" stroke="rgb(255,255,255)" stroke-linejoin="miter" stroke-linecap="round" stroke-miterlimit="3"/><g><mask id="_mask_DsqHsmGfzE5H9fhk5EVEIrvUXxEYQxJu"><path d=" M 21.251 18.454 C 21.251 19.123 21.804 19.667 22.484 19.667 C 23.165 19.667 23.717 19.123 23.717 18.454 C 23.717 17.785 23.165 17.242 22.484 17.242 C 21.804 17.242 21.251 17.785 21.251 18.454 Z " fill="white" stroke="none"/></mask><path d=" M 21.251 18.454 C 21.251 19.123 21.804 19.667 22.484 19.667 C 23.165 19.667 23.717 19.123 23.717 18.454 C 23.717 17.785 23.165 17.242 22.484 17.242 C 21.804 17.242 21.251 17.785 21.251 18.454 Z " fill="rgb(255,255,255)"/><path d=" M 21.251 18.454 C 21.251 19.123 21.804 19.667 22.484 19.667 C 23.165 19.667 23.717 19.123 23.717 18.454 C 23.717 17.785 23.165 17.242 22.484 17.242 C 21.804 17.242 21.251 17.785 21.251 18.454 Z " fill="rgb(255,255,255)" mask="url(#_mask_DsqHsmGfzE5H9fhk5EVEIrvUXxEYQxJu)" vector-effect="non-scaling-stroke" stroke-width="2" stroke="rgb(255,255,255)" stroke-linejoin="miter" stroke-linecap="butt" stroke-miterlimit="3"/><mask id="_mask_bNqBcBryZvhvxinrYxPR5U9DfWeBfM8O"><path d=" M 30.429 18.454 C 30.429 19.123 30.981 19.667 31.662 19.667 C 32.342 19.667 32.895 19.123 32.895 18.454 C 32.895 17.785 32.342 17.242 31.662 17.242 C 30.981 17.242 30.429 17.785 30.429 18.454 Z " fill="white" stroke="none"/></mask><path d=" M 30.429 18.454 C 30.429 19.123 30.981 19.667 31.662 19.667 C 32.342 19.667 32.895 19.123 32.895 18.454 C 32.895 17.785 32.342 17.242 31.662 17.242 C 30.981 17.242 30.429 17.785 30.429 18.454 Z " fill="rgb(255,255,255)"/><path d=" M 30.429 18.454 C 30.429 19.123 30.981 19.667 31.662 19.667 C 32.342 19.667 32.895 19.123 32.895 18.454 C 32.895 17.785 32.342 17.242 31.662 17.242 C 30.981 17.242 30.429 17.785 30.429 18.454 Z " fill="rgb(255,255,255)" mask="url(#_mask_bNqBcBryZvhvxinrYxPR5U9DfWeBfM8O)" vector-effect="non-scaling-stroke" stroke-width="2" stroke="rgb(255,255,255)" stroke-linejoin="miter" stroke-linecap="butt" stroke-miterlimit="3"/><path d=" M 24.467 25.433 Q 26.357 26.5 27.409 26.467 Q 28.376 26.437 30.105 25.433" fill="none" vector-effect="non-scaling-stroke" stroke-width="1" stroke="rgb(255,255,255)" stroke-linejoin="miter" stroke-linecap="round" stroke-miterlimit="3"/></g><path d=" M 10.704 13.676 L 43.408 13.563 M 24.951 0.755 Q 20.645 3.602 18.992 5.828 Q 17.877 7.33 16.516 10.519 M 27.07 0.747 L 27.07 5.828 L 27.07 9.346 M 30.185 0.776 Q 34.489 3.819 36.19 6.089 Q 37.323 7.603 38.795 10.779 M 10.598 13.568 Q 13.828 9.919 27.48 9.799 Q 41.133 9.678 43.625 13.568 M 10.601 13.391 C 12.424 6.033 19.272 0.5 27.191 0.5 C 35.11 0.5 41.755 5.984 43.579 13.342" fill-rule="evenodd" fill="none" vector-effect="non-scaling-stroke" stroke-width="1" stroke="rgb(255,255,255)" stroke-linejoin="miter" stroke-linecap="round" stroke-miterlimit="3"/></g></g></g></svg>