<?xml version="1.0" encoding="UTF-8" standalone="no"?><!-- Generator: Gravit.io --><svg xmlns="http://www.w3.org/2000/svg" xmlns:xlink="http://www.w3.org/1999/xlink" style="isolation:isolate" viewBox="0 0 54.742 42.939" width="54.742pt" height="42.939pt"><defs><clipPath id="_clipPath_Jaxv5NYgmoc2DyWkzZsHYawHzbgAOjmX"><rect width="54.742" height="42.939"/></clipPath></defs><g clip-path="url(#_clipPath_Jaxv5NYgmoc2DyWkzZsHYawHzbgAOjmX)"><g style="isolation:isolate"><g><path d=" M 33.242 16.437 C 32.054 12.262 29.9 9.489 27.445 9.489 C 24.981 9.489 22.821 12.283 21.625 16.467" fill="none" vector-effect="non-scaling-stroke" stroke-width="1" stroke="rgb(255,255,255)" stroke-linejoin="miter" stroke-linecap="round" stroke-miterlimit="3"/><path d=" M 21.584 16.443 C 17.596 14.081 14.614 13.035 11.366 10.39 C 8.106 7.736 4.844 0.868 3.344 1.575 C 1.844 2.283 0.933 4.03 1.897 9.554 C 2.209 11.345 1.662 12.863 2.702 14.148 C 3.526 15.166 3.498 18.432 4.722 19.472 C 5.815 20.402 6.772 20.143 7.575 20.968 C 8.306 21.72 8.44 23.371 9.164 24.127" fill="none" vector-effect="non-scaling-stroke" stroke-width="1" stroke="rgb(255,255,255)" stroke-linejoin="miter" stroke-linecap="round" stroke-miterlimit="3"/><path d=" M 33.322 16.386 C 37.311 14.025 40.124 13.007 43.373 10.364 C 46.633 7.71 49.897 0.843 51.397 1.551 C 52.898 2.258 53.809 4.005 52.845 9.528 C 52.533 11.318 53.081 12.835 52.04 14.12 C 51.216 15.138 51.244 18.403 50.019 19.443 C 48.925 20.373 47.968 20.114 47.164 20.939 C 46.564 21.556 46.092 23.167 45.686 23.867" fill="none" vector-effect="non-scaling-stroke" stroke-width="1" stroke="rgb(255,255,255)" stroke-linejoin="miter" stroke-linecap="round" stroke-miterlimit="3"/><mask id="_mask_vxZoDV92UdOZlbXX0GB2FhzpEyVnQocF"><path d=" M 9.191 22.899 C 9.828 22.899 45.102 22.899 45.675 22.899 C 46.247 22.899 46.183 42.939 45.675 42.939 C 45.167 42.939 9.699 42.939 9.191 42.939 C 8.683 42.939 8.555 22.899 9.191 22.899 Z " fill="white" stroke="none"/></mask><path d=" M 9.191 22.899 C 9.828 22.899 45.102 22.899 45.675 22.899 C 46.247 22.899 46.183 42.939 45.675 42.939 C 45.167 42.939 9.699 42.939 9.191 42.939 C 8.683 42.939 8.555 22.899 9.191 22.899 Z " fill="none"/><path d=" M 9.191 22.899 C 9.828 22.899 45.102 22.899 45.675 22.899 C 46.247 22.899 46.183 42.939 45.675 42.939 C 45.167 42.939 9.699 42.939 9.191 42.939 C 8.683 42.939 8.555 22.899 9.191 22.899 Z " fill="none" mask="url(#_mask_vxZoDV92UdOZlbXX0GB2FhzpEyVnQocF)" vector-effect="non-scaling-stroke" stroke-width="2" stroke="rgb(255,255,255)" stroke-linejoin="miter" stroke-linecap="square" stroke-miterlimit="3"/><mask id="_mask_gV8U3Eh53TT2t3QGyJ3fzO9uXump4NCX"><path d=" M 45.338 23.42 C 35.519 31.996 29.25 36.544 27.433 36.544 C 25.851 36.544 19.207 31.892 9.234 23.386" fill="white" stroke="none"/></mask><path d=" M 45.338 23.42 C 35.519 31.996 29.25 36.544 27.433 36.544 C 25.851 36.544 19.207 31.892 9.234 23.386" fill="none"/><path d=" M 45.338 23.42 C 35.519 31.996 29.25 36.544 27.433 36.544 C 25.851 36.544 19.207 31.892 9.234 23.386" fill="none" mask="url(#_mask_gV8U3Eh53TT2t3QGyJ3fzO9uXump4NCX)" vector-effect="non-scaling-stroke" stroke-width="2" stroke="rgb(255,255,255)" stroke-linejoin="miter" stroke-linecap="square" stroke-miterlimit="3"/><mask id="_mask_6ju9bE1unHKkUob7FeghdNglwT5r3WuZ"><path d=" M 24.476 14.901 C 24.476 15.282 24.801 15.59 25.2 15.59 C 25.6 15.59 25.924 15.282 25.924 14.901 C 25.924 14.521 25.6 14.212 25.2 14.212 C 24.801 14.212 24.476 14.521 24.476 14.901 Z " fill="white" stroke="none"/></mask><path d=" M 24.476 14.901 C 24.476 15.282 24.801 15.59 25.2 15.59 C 25.6 15.59 25.924 15.282 25.924 14.901 C 25.924 14.521 25.6 14.212 25.2 14.212 C 24.801 14.212 24.476 14.521 24.476 14.901 Z " fill="rgb(255,255,255)"/><path d=" M 24.476 14.901 C 24.476 15.282 24.801 15.59 25.2 15.59 C 25.6 15.59 25.924 15.282 25.924 14.901 C 25.924 14.521 25.6 14.212 25.2 14.212 C 24.801 14.212 24.476 14.521 24.476 14.901 Z " fill="rgb(255,255,255)" mask="url(#_mask_6ju9bE1unHKkUob7FeghdNglwT5r3WuZ)" vector-effect="non-scaling-stroke" stroke-width="2" stroke="rgb(255,255,255)" stroke-linejoin="miter" stroke-linecap="butt" stroke-miterlimit="3"/><mask id="_mask_M5Yrv8lhHgjlgmOd5ACNbYwQt96Z9qU3"><path d=" M 29.156 14.901 C 29.156 15.282 29.481 15.59 29.88 15.59 C 30.28 15.59 30.604 15.282 30.604 14.901 C 30.604 14.521 30.28 14.212 29.88 14.212 C 29.481 14.212 29.156 14.521 29.156 14.901 Z " fill="white" stroke="none"/></mask><path d=" M 29.156 14.901 C 29.156 15.282 29.481 15.59 29.88 15.59 C 30.28 15.59 30.604 15.282 30.604 14.901 C 30.604 14.521 30.28 14.212 29.88 14.212 C 29.481 14.212 29.156 14.521 29.156 14.901 Z " fill="rgb(255,255,255)"/><path d=" M 29.156 14.901 C 29.156 15.282 29.481 15.59 29.88 15.59 C 30.28 15.59 30.604 15.282 30.604 14.901 C 30.604 14.521 30.28 14.212 29.88 14.212 C 29.481 14.212 29.156 14.521 29.156 14.901 Z " fill="rgb(255,255,255)" mask="url(#_mask_M5Yrv8lhHgjlgmOd5ACNbYwQt96Z9qU3)" vector-effect="non-scaling-stroke" stroke-width="2" stroke="rgb(255,255,255)" stroke-linejoin="miter" stroke-linecap="butt" stroke-miterlimit="3"/><path d=" M 25.139 17.439 Q 26.393 21.107 27.288 21.255 Q 28.285 21.419 29.727 17.439" fill="none" vector-effect="non-scaling-stroke" stroke-width="1" stroke="rgb(255,255,255)" stroke-linejoin="miter" stroke-linecap="round" stroke-miterlimit="3"/></g></g></g></svg>