<?xml version="1.0" encoding="UTF-8" standalone="no"?><!-- Generator: Gravit.io --><svg xmlns="http://www.w3.org/2000/svg" xmlns:xlink="http://www.w3.org/1999/xlink" style="isolation:isolate" viewBox="0 0 55.805 44.716" width="55.805pt" height="44.716pt"><defs><clipPath id="_clipPath_OE3Ya4yty4F27K1vipXIeavhKRJooV87"><rect width="55.805" height="44.716"/></clipPath></defs><g clip-path="url(#_clipPath_OE3Ya4yty4F27K1vipXIeavhKRJooV87)"><g style="isolation:isolate"><g><path d="M 7.13 1 L 49.06 1 C 52.443 1 55.19 3.747 55.19 7.13 L 55.19 31.32 C 55.19 34.703 52.443 37.45 49.06 37.45 L 7.13 37.45 C 3.747 37.45 1 34.703 1 31.32 L 1 7.13 C 1 3.747 3.747 1 7.13 1 Z" style="fill:none;stroke:#FFFFFF;stroke-width:1;stroke-linecap:round;stroke-miterlimit:2;"/><path d="M 3.637 39 L 53.363 39 C 54.708 39 55.8 40.092 55.8 41.438 L 55.8 42.282 C 55.8 43.628 54.708 44.72 53.363 44.72 L 3.637 44.72 C 2.292 44.72 1.2 43.628 1.2 42.282 L 1.2 41.438 C 1.2 40.092 2.292 39 3.637 39 Z" style="fill:none;stroke:#FFFFFF;stroke-width:1;stroke-linecap:round;stroke-miterlimit:2;"/><line x1="15.781" y1="18.313" x2="24.141" y2="18.313" vector-effect="non-scaling-stroke" stroke-width="1" stroke="rgb(255,255,255)" stroke-linejoin="miter" stroke-linecap="round" stroke-miterlimit="3"/><path d=" M 7.236 6.297 L 15.507 12.663 L 7.236 18.19" fill="none" vector-effect="non-scaling-stroke" stroke-width="1" stroke="rgb(255,255,255)" stroke-linejoin="miter" stroke-linecap="round" stroke-miterlimit="3"/></g></g></g></svg>