<?xml version="1.0" encoding="UTF-8" standalone="no"?><!-- Generator: Gravit.io --><svg xmlns="http://www.w3.org/2000/svg" xmlns:xlink="http://www.w3.org/1999/xlink" style="isolation:isolate" viewBox="0 0 99.046 75.372" width="99.046pt" height="75.372pt"><defs><clipPath id="_clipPath_nKWLIzER1n2NnWVnSnhM0Z2cXGUTDIx3"><rect width="99.046" height="75.372"/></clipPath></defs><g clip-path="url(#_clipPath_nKWLIzER1n2NnWVnSnhM0Z2cXGUTDIx3)"><g style="isolation:isolate"><g><path d=" M 63.843 61.413 Q 37.982 61.413 13.166 61.072 C 7.626 61.072 3.128 56.574 3.128 51.034 L 3.128 11.597 C 3.128 6.057 7.626 1.559 13.166 1.559 L 82.096 1.559 C 87.636 1.559 92.134 6.057 92.134 11.597 Q 92.134 8.064 92.134 15.752" fill="none" vector-effect="non-scaling-stroke" stroke-width="2" stroke="rgb(0,0,0)" stroke-linejoin="round" stroke-linecap="round" stroke-miterlimit="3"/><path d=" M 93.038 71.742 Q 93.32 73.59 91.595 73.59 Q 58.87 73.59 7.341 73.59 C 5.195 73.59 3.453 71.848 3.453 69.702 L 3.453 68.489 C 3.453 66.343 5.195 64.601 7.341 64.601 L 63.843 64.942" fill="none" vector-effect="non-scaling-stroke" stroke-width="2" stroke="rgb(0,0,0)" stroke-linejoin="round" stroke-linecap="round" stroke-miterlimit="3"/><path d=" M 73.067 18.742 C 73.18 18.742 82.691 18.742 91.272 18.742 C 94.123 18.742 96.437 21.056 96.437 23.907 L 96.437 62.719 C 96.437 65.569 94.123 67.884 91.272 67.884 L 73.067 67.884 C 70.217 67.884 67.902 65.569 67.902 62.719 L 67.902 23.907 C 67.902 21.056 70.217 18.742 73.067 18.742 Z " fill="none" vector-effect="non-scaling-stroke" stroke-width="2" stroke="rgb(0,0,0)" stroke-linejoin="miter" stroke-linecap="square" stroke-miterlimit="3"/></g></g></g></svg>