<?xml version="1.0" encoding="UTF-8" standalone="no"?><!-- Generator: Gravit.io --><svg xmlns="http://www.w3.org/2000/svg" xmlns:xlink="http://www.w3.org/1999/xlink" style="isolation:isolate" viewBox="0 0 56.74 46.32" width="56.74pt" height="46.32pt"><defs><clipPath id="_clipPath_PU6HRGPISqntkK7sd2stOQoG4FHJSqig"><rect width="56.74" height="46.32"/></clipPath></defs><g clip-path="url(#_clipPath_PU6HRGPISqntkK7sd2stOQoG4FHJSqig)"><g style="isolation:isolate"><g><path d=" M 36.118 38.159 Q 20.947 38.159 6.389 37.944 C 3.139 37.944 0.5 35.114 0.5 31.628 L 0.5 6.816 C 0.5 3.33 3.139 0.5 6.389 0.5 L 46.827 0.5 C 50.077 0.5 52.716 3.33 52.716 6.816 Q 52.716 4.593 52.716 9.43" fill="none" vector-effect="non-scaling-stroke" stroke-width="1" stroke="rgb(255,255,255)" stroke-linejoin="round" stroke-linecap="round" stroke-miterlimit="3"/><path d=" M 53.246 44.658 Q 53.411 45.82 52.399 45.82 Q 33.201 45.82 2.971 45.82 C 1.713 45.82 0.691 44.724 0.691 43.374 L 0.691 42.611 C 0.691 41.261 1.713 40.165 2.971 40.165 L 36.118 40.379" fill="none" vector-effect="non-scaling-stroke" stroke-width="1" stroke="rgb(255,255,255)" stroke-linejoin="round" stroke-linecap="round" stroke-miterlimit="3"/><path d=" M 41.596 11.311 C 41.596 11.311 47.176 11.311 52.102 11.311 C 53.834 11.311 55.24 12.717 55.24 14.449 L 55.24 39.092 C 55.24 40.824 53.834 42.23 52.102 42.23 L 41.638 42.23 C 39.906 42.23 38.5 40.824 38.5 39.092 L 38.5 14.449 C 38.5 12.717 39.887 11.311 41.596 11.311 Z " fill="none" vector-effect="non-scaling-stroke" stroke-width="1" stroke="rgb(255,255,255)" stroke-linejoin="miter" stroke-linecap="square" stroke-miterlimit="3"/></g></g></g></svg>